<?xml version="1.0" encoding="UTF-8" standalone="no"?>
<!DOCTYPE svg PUBLIC "-//W3C//DTD SVG 1.1//EN"
 "http://www.w3.org/Graphics/SVG/1.1/DTD/svg11.dtd">
<!-- Generated by graphviz version 2.38.0 (20140413.2041)
 -->
<!-- Title: %3 Pages: 1 -->
<svg width="125pt" height="214pt"
 viewBox="0.00 0.00 125.33 214.35" xmlns="http://www.w3.org/2000/svg" xmlns:xlink="http://www.w3.org/1999/xlink">
<g id="graph0" class="graph" transform="scale(1 1) rotate(0) translate(4 210.35)">
<title>%3</title>
<polygon fill="white" stroke="none" points="-4,4 -4,-210.35 121.326,-210.35 121.326,4 -4,4"/>
<!-- A -->
<g id="node1" class="node"><title>A</title>
<polygon fill="lightgray" stroke="black" points="27.9767,-200.501 4.97666,-200.501 4.97666,-182.501 27.9767,-182.501 27.9767,-200.501"/>
<text text-anchor="middle" x="16.4767" y="-189.301" font-family="Times New Roman,serif" font-size="9.00">A</text>
</g>
<!-- A XOR B -->
<g id="node3" class="node"><title>A XOR B</title>
<ellipse fill="lightblue" stroke="black" cx="37.4767" cy="-37.4767" rx="37.4533" ry="37.4533"/>
<text text-anchor="middle" x="37.4767" y="-35.2767" font-family="Times New Roman,serif" font-size="9.00">A XOR B</text>
</g>
<!-- A&#45;&gt;A XOR B -->
<g id="edge5" class="edge"><title>A&#45;&gt;A XOR B</title>
<path fill="none" stroke="green" stroke-width="0.241683" d="M15.8384,-182.392C15.0972,-172.533 13.9196,-155.384 13.4767,-140.652 13.08,-127.458 11.3752,-123.984 13.4767,-110.953 15.0115,-101.436 17.6116,-91.4756 20.5477,-82.093"/>
<polygon fill="green" stroke="green" stroke-width="0.241683" points="23.8811,-83.1603 23.6984,-72.5671 17.2352,-80.9621 23.8811,-83.1603"/>
</g>
<!-- 1 -->
<g id="node4" class="node"><title>1</title>
<ellipse fill="white" stroke="black" cx="37.4767" cy="-125.803" rx="14.7" ry="14.7"/>
<text text-anchor="middle" x="37.4767" y="-123.603" font-family="Times New Roman,serif" font-size="9.00">1</text>
</g>
<!-- A&#45;&gt;1 -->
<g id="edge3" class="edge"><title>A&#45;&gt;1</title>
<path fill="none" stroke="green" stroke-width="0.971772" d="M19.1363,-182.434C21.8065,-174.334 26.0484,-161.467 29.7804,-150.147"/>
<polygon fill="green" stroke="green" stroke-width="0.971772" points="33.1976,-150.96 33.0046,-140.367 26.5495,-148.769 33.1976,-150.96"/>
</g>
<!-- B -->
<g id="node2" class="node"><title>B</title>
<polygon fill="lightgray" stroke="black" points="69.9767,-200.501 46.9767,-200.501 46.9767,-182.501 69.9767,-182.501 69.9767,-200.501"/>
<text text-anchor="middle" x="58.4767" y="-189.301" font-family="Times New Roman,serif" font-size="9.00">B</text>
</g>
<!-- B&#45;&gt;A XOR B -->
<g id="edge4" class="edge"><title>B&#45;&gt;A XOR B</title>
<path fill="none" stroke="red" stroke-width="0.221323" d="M59.1149,-182.392C59.8561,-172.533 61.0338,-155.384 61.4767,-140.652 61.8733,-127.458 63.5781,-123.984 61.4767,-110.953 59.9418,-101.436 57.3417,-91.4756 54.4056,-82.093"/>
<polygon fill="red" stroke="red" stroke-width="0.221323" points="57.7182,-80.9621 51.2549,-72.5671 51.0723,-83.1603 57.7182,-80.9621"/>
</g>
<!-- B&#45;&gt;1 -->
<g id="edge2" class="edge"><title>B&#45;&gt;1</title>
<path fill="none" stroke="red" stroke-width="1.02045" d="M55.817,-182.434C53.1468,-174.334 48.9049,-161.467 45.173,-150.147"/>
<polygon fill="red" stroke="red" stroke-width="1.02045" points="48.4038,-148.769 41.9487,-140.367 41.7558,-150.96 48.4038,-148.769"/>
</g>
<!-- 1&#45;&gt;A XOR B -->
<g id="edge1" class="edge"><title>1&#45;&gt;A XOR B</title>
<path fill="none" stroke="red" stroke-width="0.821636" d="M37.4767,-110.933C37.4767,-103.793 37.4767,-94.6275 37.4767,-85.2337"/>
<polygon fill="red" stroke="red" stroke-width="0.821636" points="40.9768,-85.0357 37.4767,-75.0358 33.9768,-85.0358 40.9768,-85.0357"/>
</g>
<!-- 2 -->
<g id="node5" class="node"><title>2</title>
<ellipse fill="white" stroke="black" cx="102.477" cy="-191.501" rx="14.7" ry="14.7"/>
<text text-anchor="middle" x="102.477" y="-189.301" font-family="Times New Roman,serif" font-size="9.00">2</text>
</g>
</g>
</svg>
