<?xml version="1.0" encoding="UTF-8" standalone="no"?>
<!DOCTYPE svg PUBLIC "-//W3C//DTD SVG 1.1//EN"
 "http://www.w3.org/Graphics/SVG/1.1/DTD/svg11.dtd">
<!-- Generated by graphviz version 2.38.0 (20140413.2041)
 -->
<!-- Title: %3 Pages: 1 -->
<svg width="86pt" height="203pt"
 viewBox="0.00 0.00 85.70 202.65" xmlns="http://www.w3.org/2000/svg" xmlns:xlink="http://www.w3.org/1999/xlink">
<g id="graph0" class="graph" transform="scale(1 1) rotate(0) translate(4 198.652)">
<title>%3</title>
<polygon fill="white" stroke="none" points="-4,4 -4,-198.652 81.6985,-198.652 81.6985,4 -4,4"/>
<!-- A -->
<g id="node1" class="node"><title>A</title>
<polygon fill="lightgray" stroke="black" points="28.3492,-194.652 5.34924,-194.652 5.34924,-176.652 28.3492,-176.652 28.3492,-194.652"/>
<text text-anchor="middle" x="16.8492" y="-183.452" font-family="Times,serif" font-size="9.00">A</text>
</g>
<!-- 1 -->
<g id="node4" class="node"><title>1</title>
<ellipse fill="white" stroke="black" cx="14.8492" cy="-125.803" rx="14.7" ry="14.7"/>
<text text-anchor="middle" x="14.8492" y="-123.603" font-family="Times,serif" font-size="9.00">1</text>
</g>
<!-- A&#45;&gt;1 -->
<g id="edge6" class="edge"><title>A&#45;&gt;1</title>
<path fill="none" stroke="green" stroke-width="0.267409" d="M16.5712,-176.608C16.3428,-170.003 16.0069,-160.288 15.6923,-151.187"/>
<polygon fill="green" stroke="green" stroke-width="0.267409" points="19.1839,-150.883 15.3404,-141.01 12.1881,-151.125 19.1839,-150.883"/>
</g>
<!-- 2 -->
<g id="node5" class="node"><title>2</title>
<ellipse fill="white" stroke="black" cx="62.8492" cy="-125.803" rx="14.7" ry="14.7"/>
<text text-anchor="middle" x="62.8492" y="-123.603" font-family="Times,serif" font-size="9.00">2</text>
</g>
<!-- A&#45;&gt;2 -->
<g id="edge3" class="edge"><title>A&#45;&gt;2</title>
<path fill="none" stroke="green" stroke-width="0.198515" d="M23.2453,-176.608C29.5566,-168.671 39.4395,-156.242 47.7536,-145.787"/>
<polygon fill="green" stroke="green" stroke-width="0.198515" points="50.5024,-147.953 53.9868,-137.948 45.0234,-143.597 50.5024,-147.953"/>
</g>
<!-- B -->
<g id="node2" class="node"><title>B</title>
<polygon fill="lightgray" stroke="black" points="72.3492,-194.652 49.3492,-194.652 49.3492,-176.652 72.3492,-176.652 72.3492,-194.652"/>
<text text-anchor="middle" x="60.8492" y="-183.452" font-family="Times,serif" font-size="9.00">B</text>
</g>
<!-- B&#45;&gt;1 -->
<g id="edge2" class="edge"><title>B&#45;&gt;1</title>
<path fill="none" stroke="green" stroke-width="0.296998" d="M54.4531,-176.608C48.1419,-168.671 38.259,-156.242 29.9449,-145.787"/>
<polygon fill="green" stroke="green" stroke-width="0.296998" points="32.6751,-143.597 23.7117,-137.948 27.1961,-147.953 32.6751,-143.597"/>
</g>
<!-- B&#45;&gt;2 -->
<g id="edge5" class="edge"><title>B&#45;&gt;2</title>
<path fill="none" stroke="green" stroke-width="0.151275" d="M61.1273,-176.608C61.3557,-170.003 61.6916,-160.288 62.0062,-151.187"/>
<polygon fill="green" stroke="green" stroke-width="0.151275" points="65.5104,-151.125 62.3581,-141.01 58.5145,-150.883 65.5104,-151.125"/>
</g>
<!-- A XOR B -->
<g id="node3" class="node"><title>A XOR B</title>
<ellipse fill="lightblue" stroke="black" cx="38.8492" cy="-37.4767" rx="37.4533" ry="37.4533"/>
<text text-anchor="middle" x="38.8492" y="-35.2767" font-family="Times,serif" font-size="9.00">A XOR B</text>
</g>
<!-- 1&#45;&gt;A XOR B -->
<g id="edge4" class="edge"><title>1&#45;&gt;A XOR B</title>
<path fill="none" stroke="green" stroke-width="1.48606" d="M18.5992,-111.314C20.7173,-103.696 23.4999,-93.6869 26.3215,-83.5379"/>
<polygon fill="green" stroke="green" stroke-width="1.48606" points="29.7117,-84.4099 29.0183,-73.8378 22.9675,-82.5349 29.7117,-84.4099"/>
</g>
<!-- 2&#45;&gt;A XOR B -->
<g id="edge1" class="edge"><title>2&#45;&gt;A XOR B</title>
<path fill="none" stroke="red" stroke-width="0.714294" d="M59.0992,-111.314C56.9812,-103.696 54.1986,-93.6869 51.377,-83.5379"/>
<polygon fill="red" stroke="red" stroke-width="0.714294" points="54.731,-82.5349 48.6802,-73.8378 47.9867,-84.4099 54.731,-82.5349"/>
</g>
</g>
</svg>
