<?xml version="1.0" encoding="UTF-8" standalone="no"?>
<!DOCTYPE svg PUBLIC "-//W3C//DTD SVG 1.1//EN"
 "http://www.w3.org/Graphics/SVG/1.1/DTD/svg11.dtd">
<!-- Generated by graphviz version 2.38.0 (20140413.2041)
 -->
<!-- Title: %3 Pages: 1 -->
<svg width="196pt" height="334pt"
 viewBox="0.00 0.00 195.82 334.05" xmlns="http://www.w3.org/2000/svg" xmlns:xlink="http://www.w3.org/1999/xlink">
<g id="graph0" class="graph" transform="scale(1 1) rotate(0) translate(4 330.049)">
<title>%3</title>
<polygon fill="white" stroke="none" points="-4,4 -4,-330.049 191.819,-330.049 191.819,4 -4,4"/>
<!-- A -->
<g id="node1" class="node"><title>A</title>
<polygon fill="lightgray" stroke="black" points="38.9767,-326.049 15.9767,-326.049 15.9767,-308.049 38.9767,-308.049 38.9767,-326.049"/>
<text text-anchor="middle" x="27.4767" y="-314.849" font-family="Times,serif" font-size="9.00">A</text>
</g>
<!-- A XOR B -->
<g id="node3" class="node"><title>A XOR B</title>
<ellipse fill="lightblue" stroke="black" cx="37.4767" cy="-37.4767" rx="37.4533" ry="37.4533"/>
<text text-anchor="middle" x="37.4767" y="-35.2767" font-family="Times,serif" font-size="9.00">A XOR B</text>
</g>
<!-- A&#45;&gt;A XOR B -->
<g id="edge7" class="edge"><title>A&#45;&gt;A XOR B</title>
<path fill="none" stroke="red" stroke-width="0.390898" d="M21.3342,-307.818C15.4317,-299.354 6.91666,-285.539 3.47666,-272.049 0.215271,-259.259 2.52973,-255.516 3.47666,-242.35 7.41616,-187.579 18.7953,-125.438 27.3118,-84.3098"/>
<polygon fill="red" stroke="red" stroke-width="0.390898" points="30.779,-84.8295 29.4091,-74.3236 23.9284,-83.3907 30.779,-84.8295"/>
</g>
<!-- 1 -->
<g id="node4" class="node"><title>1</title>
<ellipse fill="white" stroke="black" cx="27.4767" cy="-257.2" rx="14.7" ry="14.7"/>
<text text-anchor="middle" x="27.4767" y="-255" font-family="Times,serif" font-size="9.00">1</text>
</g>
<!-- A&#45;&gt;1 -->
<g id="edge2" class="edge"><title>A&#45;&gt;1</title>
<path fill="none" stroke="green" stroke-width="0.486284" d="M27.4767,-308.005C27.4767,-301.4 27.4767,-291.685 27.4767,-282.584"/>
<polygon fill="green" stroke="green" stroke-width="0.486284" points="30.9768,-282.407 27.4767,-272.407 23.9768,-282.407 30.9768,-282.407"/>
</g>
<!-- 3 -->
<g id="node6" class="node"><title>3</title>
<ellipse fill="white" stroke="black" cx="91.4767" cy="-257.2" rx="14.7" ry="14.7"/>
<text text-anchor="middle" x="91.4767" y="-255" font-family="Times,serif" font-size="9.00">3</text>
</g>
<!-- A&#45;&gt;3 -->
<g id="edge1" class="edge"><title>A&#45;&gt;3</title>
<path fill="none" stroke="red" stroke-width="0.45506" d="M36.3756,-308.005C45.8638,-299.429 61.154,-285.608 73.2231,-274.699"/>
<polygon fill="red" stroke="red" stroke-width="0.45506" points="75.8816,-277.014 80.9532,-267.712 71.1876,-271.821 75.8816,-277.014"/>
</g>
<!-- B -->
<g id="node2" class="node"><title>B</title>
<polygon fill="lightgray" stroke="black" points="145.977,-326.049 122.977,-326.049 122.977,-308.049 145.977,-308.049 145.977,-326.049"/>
<text text-anchor="middle" x="134.477" y="-314.849" font-family="Times,serif" font-size="9.00">B</text>
</g>
<!-- B&#45;&gt;A XOR B -->
<g id="edge3" class="edge"><title>B&#45;&gt;A XOR B</title>
<path fill="none" stroke="green" stroke-width="0.542551" d="M145.256,-307.987C154.908,-300.053 168.441,-286.98 174.477,-272.049 190.369,-232.731 192.764,-215.807 176.477,-176.652 156.478,-128.574 110.719,-88.6005 77.1436,-64.2223"/>
<polygon fill="green" stroke="green" stroke-width="0.542551" points="79.0733,-61.2999 68.8931,-58.365 75.0211,-67.0078 79.0733,-61.2999"/>
</g>
<!-- B&#45;&gt;1 -->
<g id="edge10" class="edge"><title>B&#45;&gt;1</title>
<path fill="none" stroke="red" stroke-width="0.526408" d="M122.617,-309.637C104.985,-300.104 71.5616,-282.034 49.3985,-270.052"/>
<polygon fill="red" stroke="red" stroke-width="0.526408" points="50.848,-266.856 40.3867,-265.179 47.5188,-273.014 50.848,-266.856"/>
</g>
<!-- 2 -->
<g id="node5" class="node"><title>2</title>
<ellipse fill="white" stroke="black" cx="70.4767" cy="-125.803" rx="14.7" ry="14.7"/>
<text text-anchor="middle" x="70.4767" y="-123.603" font-family="Times,serif" font-size="9.00">2</text>
</g>
<!-- B&#45;&gt;2 -->
<g id="edge6" class="edge"><title>B&#45;&gt;2</title>
<path fill="none" stroke="red" stroke-width="0.485826" stroke-dasharray="1,5" d="M139.404,-307.839C152.278,-285.224 184.197,-220.782 158.477,-176.652 144.862,-153.292 115.787,-139.999 94.7764,-133.113"/>
<polygon fill="red" stroke="red" stroke-width="0.485826" points="95.5155,-129.681 84.9312,-130.154 93.5007,-136.384 95.5155,-129.681"/>
</g>
<!-- B&#45;&gt;3 -->
<g id="edge4" class="edge"><title>B&#45;&gt;3</title>
<path fill="none" stroke="green" stroke-width="0.284513" d="M128.498,-308.005C122.729,-300.244 113.767,-288.187 106.106,-277.881"/>
<polygon fill="green" stroke="green" stroke-width="0.284513" points="108.85,-275.705 100.075,-269.767 103.232,-279.881 108.85,-275.705"/>
</g>
<!-- 1&#45;&gt;A XOR B -->
<g id="edge11" class="edge"><title>1&#45;&gt;A XOR B</title>
<path fill="none" stroke="green" stroke-width="1.27729" d="M26.4117,-242.243C25.7044,-232.254 24.8414,-218.483 24.4767,-206.35 23.2388,-165.175 27.3031,-118.462 31.2072,-84.7849"/>
<polygon fill="green" stroke="green" stroke-width="1.27729" points="34.6922,-85.1182 32.4076,-74.7726 27.742,-84.2848 34.6922,-85.1182"/>
</g>
<!-- 2&#45;&gt;A XOR B -->
<g id="edge9" class="edge"><title>2&#45;&gt;A XOR B</title>
<path fill="none" stroke="red" stroke-width="0.359215" d="M65.4647,-111.692C62.3967,-103.666 58.2767,-92.8881 54.1428,-82.0741"/>
<polygon fill="red" stroke="red" stroke-width="0.359215" points="57.3725,-80.7208 50.5325,-72.6298 50.834,-83.2204 57.3725,-80.7208"/>
</g>
<!-- 3&#45;&gt;2 -->
<g id="edge8" class="edge"><title>3&#45;&gt;2</title>
<path fill="none" stroke="green" stroke-width="0.32234" stroke-dasharray="1,5" d="M89.2293,-242.352C85.6768,-220.462 78.7197,-177.594 74.3507,-150.673"/>
<polygon fill="green" stroke="green" stroke-width="0.32234" points="77.7647,-149.861 72.7079,-140.551 70.8551,-150.982 77.7647,-149.861"/>
</g>
<!-- 4 -->
<g id="node7" class="node"><title>4</title>
<ellipse fill="white" stroke="black" cx="134.477" cy="-191.501" rx="14.7" ry="14.7"/>
<text text-anchor="middle" x="134.477" y="-189.301" font-family="Times,serif" font-size="9.00">4</text>
</g>
<!-- 3&#45;&gt;4 -->
<g id="edge5" class="edge"><title>3&#45;&gt;4</title>
<path fill="none" stroke="red" stroke-width="0.129688" d="M99.3635,-244.516C105.289,-235.738 113.559,-223.488 120.584,-213.081"/>
<polygon fill="red" stroke="red" stroke-width="0.129688" points="123.653,-214.79 126.348,-204.543 117.852,-210.873 123.653,-214.79"/>
</g>
<!-- 5 -->
<g id="node8" class="node"><title>5</title>
<ellipse fill="white" stroke="black" cx="48.4767" cy="-191.501" rx="14.7" ry="14.7"/>
<text text-anchor="middle" x="48.4767" y="-189.301" font-family="Times,serif" font-size="9.00">5</text>
</g>
<!-- 3&#45;&gt;5 -->
<g id="edge13" class="edge"><title>3&#45;&gt;5</title>
<path fill="none" stroke="green" stroke-width="0.386351" d="M83.5898,-244.516C77.664,-235.738 69.3945,-223.488 62.3691,-213.081"/>
<polygon fill="green" stroke="green" stroke-width="0.386351" points="65.1017,-210.873 56.6057,-204.543 59.2999,-214.79 65.1017,-210.873"/>
</g>
<!-- 5&#45;&gt;2 -->
<g id="edge12" class="edge"><title>5&#45;&gt;2</title>
<path fill="none" stroke="green" stroke-width="0.235383" d="M53.0351,-177.303C55.8079,-169.274 59.4238,-158.805 62.6439,-149.481"/>
<polygon fill="green" stroke="green" stroke-width="0.235383" points="65.9677,-150.579 65.9241,-139.984 59.3512,-148.294 65.9677,-150.579"/>
</g>
</g>
</svg>
